:FULLY-SPECIFIED
:FORCE-ALL-JOINTS-BE-3DOF
:DEGREES
781
root 1.70703 16.2918 18.5055 -34.1294 79.8179 319.331
lfemur -39.1674 17.0829 -16.3554
ltibia 51.9758 0 0
lfoot -22.9505 20.4659 0
ltoes 20.1551 0 0
rfemur -15.4113 -24.3591 22.1711
rtibia 52.3273 0 0
rfoot -19.3076 -34.059 0
rtoes -23.0528 0 0
lowerback 1.12294 4.69815 -1.08703
upperback -1.03855 6.24411 -3.88288
thorax -1.3759 3.13789 -3.51462
lowerneck -5.30321 -6.78517 -0.855588
upperneck -2.76409 -8.89608 5.46604
head 0.332336 -4.37335 1.65274
lclavicle 5.69176e-14 -5.83256e-15 0
lhumerus -55.6419 -11.4735 94.5335
lradius 70.4502 0 0
lwrist 12.4277 0 0
lhand -19.7554 -5.39952 0
lfingers 7.12502 0 0
lthumb 6.57571 24.4719 0
rclavicle 5.69176e-14 -5.83256e-15 0
rhumerus -29.8536 48.33 -111.565
rradius 79.777 0 0
rwrist 6.3036 0 0
rhand -22.9651 -20.2488 0
rfingers 7.12502 0 0
rthumb 3.47686 -770.2 0
782
root 1.70071 16.3066 18.5842 -32.5517 77.6208 320.901
lfemur -39.2177 16.2209 -16.0394
ltibia 51.9834 0 0
lfoot -22.7746 19.357 0
ltoes 19.7349 0 0
rfemur -15.2677 -23.5688 22.0787
rtibia 51.8079 0 0
rfoot -19.4619 -33.2302 0
rtoes -22.9101 0 0
lowerback 1.13873 4.69595 -0.9164
upperback -1.00513 6.24383 -3.79381
thorax -1.34219 3.13667 -3.51665
lowerneck -5.33212 -6.66101 -0.77635
upperneck -2.70424 -8.73951 5.35017
head 0.344511 -4.29662 1.60599
lclavicle 5.04226e-14 -5.45444e-15 0
lhumerus -55.624 -11.3406 94.4499
lradius 70.2591 0 0
lwrist 12.9498 0 0
lhand -19.4647 -5.01688 0
lfingers 7.12502 0 0
lthumb 6.8562 24.8414 0
rclavicle 5.04226e-14 -5.45444e-15 0
rhumerus -30.0846 48.197 -111.746
rradius 79.482 0 0
rwrist 6.19538 0 0
rhand -22.9207 -20.5901 0
rfingers 7.12502 0 0
rthumb 3.51971 -770.54 0
783
root 1.69306 16.3245 18.6796 -30.6386 74.9567 322.805
lfemur -39.2788 15.1758 -15.6563
ltibia 51.9926 0 0
lfoot -22.5614 18.0124 0
ltoes 19.2254 0 0
rfemur -15.0936 -22.6105 21.9665
rtibia 51.1782 0 0
rfoot -19.649 -32.2254 0
rtoes -22.7371 0 0
lowerback 1.15787 4.69327 -0.70951
upperback -0.964603 6.24348 -3.68581
thorax -1.30131 3.13518 -3.51911
lowerneck -5.36717 -6.51046 -0.680272
upperneck -2.63167 -8.54965 5.20967
head 0.359274 -4.20359 1.54931
lclavicle 4.25471e-14 -4.99596e-15 0
lhumerus -55.6023 -11.1795 94.3484
lradius 70.0274 0 0
lwrist 13.5827 0 0
lhand -19.1121 -4.55291 0
lfingers 7.12502 0 0
lthumb 7.19631 25.2894 0
rclavicle 4.25471e-14 -4.99596e-15 0
rhumerus -30.3647 48.0357 -111.966
rradius 79.1242 0 0
rwrist 6.06417 0 0
rhand -22.8669 -21.0038 0
rfingers 7.12502 0 0
rthumb 3.57167 -770.953 0
784
root 1.68427 16.3451 18.7891 -28.4418 71.8975 324.991
lfemur -39.3488 13.9756 -15.2163
ltibia 52.0031 0 0
lfoot -22.3165 16.4684 0
ltoes 18.6402 0 0
rfemur -14.8936 -21.5101 21.8378
rtibia 50.455 0 0
rfoot -19.8639 -31.0715 0
rtoes -22.5384 0 0
lowerback 1.17986 4.6902 -0.471936
upperback -0.918071 6.24308 -3.56179
thorax -1.25437 3.13348 -3.52193
lowerneck -5.40741 -6.33758 -0.569943
upperneck -2.54835 -8.33164 5.04834
head 0.376226 -4.09675 1.48422
lclavicle 3.35036e-14 -4.46947e-15 0
lhumerus -55.5773 -10.9945 94.2319
lradius 69.7612 0 0
lwrist 14.3096 0 0
lhand -18.7073 -4.02012 0
lfingers 7.12502 0 0
lthumb 7.58685 25.8039 0
rclavicle 3.35036e-14 -4.46947e-15 0
rhumerus -30.6864 47.8506 -112.219
rradius 78.7133 0 0
rwrist 5.91349 0 0
rhand -22.8051 -21.479 0
rfingers 7.12502 0 0
rthumb 3.63134 -771.427 0
785
root 1.67456 16.3679 18.9102 -26.0129 68.5151 327.408
lfemur -39.4263 12.6486 -14.7298
ltibia 52.0148 0 0
lfoot -22.0457 14.7612 0
ltoes 17.9933 0 0
rfemur -14.6726 -20.2934 21.6954
rtibia 49.6555 0 0
rfoot -20.1015 -29.7956 0
rtoes -22.3188 0 0
lowerback 1.20417 4.6868 -0.209256
upperback -0.866621 6.24264 -3.42466
thorax -1.20247 3.13159 -3.52506
lowerneck -5.45191 -6.14644 -0.447955
upperneck -2.45621 -8.09059 4.86995
head 0.39497 -3.97863 1.41225
lclavicle 2.35045e-14 -3.88735e-15 0
lhumerus -55.5498 -10.7899 94.1031
lradius 69.467 0 0
lwrist 15.1133 0 0
lhand -18.2597 -3.43104 0
lfingers 7.12502 0 0
lthumb 8.01867 26.3728 0
rclavicle 2.35045e-14 -3.88735e-15 0
rhumerus -31.042 47.6458 -112.498
rradius 78.2591 0 0
rwrist 5.74689 0 0
rhand -22.7368 -22.0044 0
rfingers 7.12502 0 0
rthumb 3.69731 -771.951 0
786
root 1.66412 16.3924 19.0403 -23.4034 64.8812 330.004
lfemur -39.5095 11.2229 -14.2072
ltibia 52.0274 0 0
lfoot -21.7548 12.9272 0
ltoes 17.2983 0 0
rfemur -14.4351 -18.9863 21.5425
rtibia 48.7965 0 0
rfoot -20.3567 -28.4249 0
rtoes -22.0827 0 0
lowerback 1.23028 4.68315 0.0729513
upperback -0.811346 6.24217 -3.27734
thorax -1.14672 3.12957 -3.52842
lowerneck -5.49972 -5.94109 -0.316899
upperneck -2.35723 -7.83161 4.67831
head 0.415108 -3.85173 1.33493
lclavicle 1.2762e-14 -3.26195e-15 0
lhumerus -55.5202 -10.5702 93.9647
lradius 69.1509 0 0
lwrist 15.9767 0 0
lhand -17.7789 -2.79816 0
lfingers 7.12502 0 0
lthumb 8.48258 26.9839 0
rclavicle 1.2762e-14 -3.26195e-15 0
rhumerus -31.4241 47.4259 -112.798
rradius 77.771 0 0
rwrist 5.56791 0 0
rhand -22.6634 -22.5688 0
rfingers 7.12502 0 0
rthumb 3.76818 -772.514 0
787
root 1.65316 16.4181 19.1768 -20.665 61.0677 332.729
lfemur -39.5968 9.72677 -13.6588
ltibia 52.0405 0 0
lfoot -21.4495 11.0024 0
ltoes 16.5689 0 0
rfemur -14.1858 -17.6146 21.382
rtibia 47.895 0 0
rfoot -20.6245 -26.9865 0
rtoes -21.8351 0 0
lowerback 1.25769 4.67932 0.369106
upperback -0.75334 6.24168 -3.12273
thorax -1.0882 3.12745 -3.53194
lowerneck -5.54989 -5.72558 -0.179366
upperneck -2.25335 -7.55984 4.47719
head 0.43624 -3.71855 1.25379
lclavicle 1.48858e-15 -2.60565e-15 0
lhumerus -55.4891 -10.3395 93.8194
lradius 68.8191 0 0
lwrist 16.8828 0 0
lhand -17.2743 -2.13401 0
lfingers 7.12502 0 0
lthumb 8.96943 27.6252 0
rclavicle 1.48858e-15 -2.60565e-15 0
rhumerus -31.8251 47.195 -113.113
rradius 77.2589 0 0
rwrist 5.38008 0 0
rhand -22.5864 -23.1611 0
rfingers 7.12502 0 0
rthumb 3.84256 -773.105 0
